# xmcd
#
# Track frame offsets: 
#        150
#        15057
#        26056
#        45923
#        58678
#        69886
#        82290
#        94876
#        109066
#        136379
#        148381
#        166541
#        181699
#        210340
#        223457
#        250547
#        269857
#        296035
#        311395
#        334829
#
# Disc length: 4786 seconds
#
# Revision: 0
# Processed by: cddbd v1.5.2PL0 Copyright (c) Steve Scherf et al.
# Submitted via: ExactAudioCopyFreeDBPlugin 1.0
#
DISCID=2212b014
DTITLE=Skaldowie - Skaldowie vol 2
DYEAR=1999
DGENRE=Pop
TTITLE0=Malowany Dom
TTITLE1=Króliczek
TTITLE2=Cała Jesteś W Skowronkach
TTITLE3=Medytacje Wiejskiego Listonosza
TTITLE4=Żeby Stało Się Między Nami
TTITLE5=Bas
TTITLE6=Wieczór Na Dworcu W Kansas City
TTITLE7=Z Kopyta Kulig Rwie
TTITLE8=Dwdzieścia Minut Po Północy
TTITLE9=Prześliczna Wiolonczelistka
TTITLE10=Jeszcze Przed Chwilą
TTITLE11=Czy Musisz Odchodzić
TTITLE12=Zwariowane Koło Dwa-Jeden-Zero-Start
TTITLE13=Póki Ludzie Się Kochają
TTITLE14=Coraz Większe Oczarowanie
TTITLE15=Hymn Kolejarzy Wąskotorowych
TTITLE16=Narodził Się Człowiek
TTITLE17=Ty
TTITLE18=Na Wszystkich Dworcach Świata
TTITLE19=Ostatnia Scena Epilog
EXTD=
EXTT0=
EXTT1=
EXTT2=
EXTT3=
EXTT4=
EXTT5=
EXTT6=
EXTT7=
EXTT8=
EXTT9=
EXTT10=
EXTT11=
EXTT12=
EXTT13=
EXTT14=
EXTT15=
EXTT16=
EXTT17=
EXTT18=
EXTT19=
PLAYORDER=
